<?xml version="1.0" encoding="UTF-8" standalone="no"?>
<!--
 Logo by Sylvain Lelievre
 SVG version by Laurent Jouanneau 
 Copyright (c) 2006-2007 by Laurent Jouanneau, 2006 Sylvain lelievre
 You mustn't modify this logo without the permission of the authors
 All rights reserved
-->

<svg
   xmlns:svg="http://www.w3.org/2000/svg"
   xmlns="http://www.w3.org/2000/svg"
   width="90.40887"
   height="90.457901"
   version="1.0"
   id="svg2238">
  <g
     id="g2302">
    <path
       style="fill:#C9CDD3;fill-opacity:1;stroke:none;stroke-width:8;stroke-linejoin:round;stroke-miterlimit:4;stroke-dasharray:none;stroke-opacity:1;display:inline"
       d="M 12.894477,0 C 5.9222923,0 0.22586486,5.6964433 0.22586486,12.668617 L 0,77.750532 C 0,84.722716 5.6964275,90.419138 12.668612,90.419144 L 43.620612,90.457899 L 43.597225,84.843862 L 12.668612,84.875277 C 8.671839,84.875272 5.5438663,81.747305 5.5438663,77.750532 L 5.7697311,12.668617 C 5.7697311,8.6718549 8.8977092,5.5438769 12.894477,5.5438769 L 77.433036,5.5986787 C 81.429798,5.5986787 84.557776,8.7266461 84.557776,12.723419 L 84.557776,77.727833 C 84.557776,81.724611 81.429804,84.852579 77.433036,84.852579 L 46.290118,84.852579 L 46.290118,90.443224 L 77.433036,90.396445 C 84.405215,90.396445 90.101653,84.700023 90.101653,77.727833 L 90.101653,12.723419 C 90.101653,5.7512346 84.40521,0.054801787 77.433036,0.054801787 L 12.894477,0 z M 46.290118,90.419837 L 41.819668,90.411121 C 41.819668,90.411121 46.290118,90.419837 46.290118,90.419837 z "
       id="jelix-logo-frame" />
    <path
       style="fill:#C9CDD3;fill-opacity:1;fill-rule:evenodd;stroke:none;stroke-width:8;stroke-linecap:butt;stroke-linejoin:miter;stroke-miterlimit:4;stroke-dasharray:none;stroke-opacity:1;display:inline"
       d="M 38.071184,7.1277623 C 38.071184,7.1277623 38.047913,26.377956 38.040065,34.383298 C 32.038919,30.912257 19.491321,23.559191 19.491321,23.559191 C 17.486972,22.4073 13.524245,22.209961 11.586823,25.539226 C 11.586823,25.539226 39.35101,41.564271 39.35101,41.564271 C 40.517476,42.238357 41.426471,42.123249 42.241888,41.654727 C 43.069631,41.179129 43.597633,40.500529 43.607286,39.119443 C 43.607286,39.119443 43.6366,12.511886 43.6366,12.511886 C 43.626,10.217133 41.85446,7.1413212 38.071184,7.1277623 z "
       id="jelix-logo-top-left" />
    <path
       style="fill:#C9CDD3;fill-opacity:1;fill-rule:evenodd;stroke:none;stroke-width:8;stroke-linecap:butt;stroke-linejoin:miter;stroke-miterlimit:4;stroke-dasharray:none;stroke-opacity:1;display:inline"
       d="M 75.513222,20.781161 C 75.513222,20.781161 58.784927,30.480903 51.848168,34.476776 C 51.853608,27.544109 51.947748,13.001037 51.947748,13.001037 C 51.943143,10.689275 50.132679,7.1587858 46.28074,7.1455603 C 46.28074,7.1455603 46.284741,39.202574 46.284741,39.202574 C 46.284196,40.549811 46.838379,41.279471 47.651843,41.75138 C 48.477591,42.230429 49.329281,42.348389 50.530157,41.666206 C 50.530157,41.666206 73.798526,28.226864 73.798526,28.226864 C 75.780536,27.070305 77.393116,24.064352 75.513222,20.781161 z "
       id="jelix-logo-top-right" />
    <path
       style="fill:#C9CDD3;fill-opacity:1;fill-rule:evenodd;stroke:none;stroke-width:8;stroke-linecap:butt;stroke-linejoin:miter;stroke-miterlimit:4;stroke-dasharray:none;stroke-opacity:1;display:inline"
       d="M 82.503188,60.06993 C 82.503188,60.06993 65.798164,50.486404 58.869255,46.476935 C 64.875843,43.015309 77.517581,35.825297 77.517581,35.825297 C 79.517324,34.665436 81.669582,31.332275 79.755071,27.98979 C 79.755071,27.98979 51.994881,44.021762 51.994881,44.021762 C 50.827865,44.694906 50.473058,45.539673 50.4711,46.48011 C 50.46911,47.434751 50.792798,48.231317 51.984021,48.930213 C 51.984021,48.930213 74.991538,62.131509 74.991538,62.131509 C 76.984148,63.269698 80.599807,63.339562 82.503188,60.06993 z "
       id="jelix-logo-right" />
    <path
       style="fill:#C9CDD3;fill-opacity:1;fill-rule:evenodd;stroke:none;stroke-width:8;stroke-linecap:butt;stroke-linejoin:miter;stroke-miterlimit:4;stroke-dasharray:none;stroke-opacity:1;display:inline"
       d="M 7.850278,33.028289 C 7.850278,33.028289 24.125303,42.413357 31.054207,46.422826 C 25.047624,49.884452 12.405881,57.074455 12.405881,57.074455 C 10.406142,58.234327 8.2538742,61.567482 10.168396,64.909968 C 10.168396,64.909968 37.928583,48.877999 37.928583,48.877999 C 39.095588,48.204855 39.4504,47.360088 39.452358,46.419656 C 39.454348,45.46501 39.130665,44.668444 37.939437,43.969543 C 37.939437,43.969543 15.295774,30.900561 15.295774,30.900561 C 13.303159,29.762367 9.7536597,29.758657 7.850278,33.028289 z "
       id="jelix-logo-left" />
    <path
       style="fill:#C9CDD3;fill-opacity:1;fill-rule:evenodd;stroke:none;stroke-width:8;stroke-linecap:butt;stroke-linejoin:miter;stroke-miterlimit:4;stroke-dasharray:none;stroke-opacity:1;display:inline"
       d="M 14.276011,72.134785 C 14.276011,72.134785 31.103536,62.401962 38.040293,58.406083 C 38.034857,65.338755 37.940713,87.646935 37.940713,87.646935 C 37.940713,87.646935 43.60772,87.725362 43.60772,87.725362 C 43.60772,87.725362 43.603719,53.68029 43.603719,53.68029 C 43.604259,52.333057 43.050076,51.603402 42.236617,51.131488 C 41.410864,50.652445 40.55918,50.534479 39.358309,51.216662 C 39.358309,51.216662 15.990706,64.72216 15.990706,64.72216 C 14.008692,65.878718 12.396117,68.851584 14.276011,72.134785 z "
       id="jelix-logo-bottom-left" />
    <path
       style="fill:#C9CDD3;fill-opacity:1;fill-rule:evenodd;stroke:none;stroke-width:8;stroke-linecap:butt;stroke-linejoin:miter;stroke-miterlimit:4;stroke-dasharray:none;stroke-opacity:1;display:inline"
       d="M 51.84992,87.611667 C 51.84992,87.611667 51.840118,66.47098 51.847961,58.465632 C 57.849111,61.936678 70.396709,69.289744 70.396709,69.289744 C 72.401057,70.441635 76.363779,70.638974 78.301206,67.309709 C 78.301206,67.309709 50.537016,51.284674 50.537016,51.284674 C 49.37055,50.610588 48.461555,50.72569 47.646138,51.194212 C 46.818396,51.66981 46.290393,52.34841 46.28074,53.729487 C 46.28074,53.729487 46.282497,87.581925 46.282497,87.581925 C 46.282497,87.581925 51.84992,87.611667 51.84992,87.611667 z "
       id="jelix-logo-bottom-right" />
  </g>
</svg>
