<?xml version="1.0" encoding="UTF-8" standalone="no"?>
<!-- Created with Inkscape (http://www.inkscape.org/) -->
<svg
   xmlns:dc="http://purl.org/dc/elements/1.1/"
   xmlns:cc="http://web.resource.org/cc/"
   xmlns:rdf="http://www.w3.org/1999/02/22-rdf-syntax-ns#"
   xmlns:svg="http://www.w3.org/2000/svg"
   xmlns="http://www.w3.org/2000/svg"
   xmlns:sodipodi="http://sodipodi.sourceforge.net/DTD/sodipodi-0.dtd"
   xmlns:inkscape="http://www.inkscape.org/namespaces/inkscape"
   width="210mm"
   height="297mm"
   id="svg2"
   sodipodi:version="0.32"
   inkscape:version="0.45"
   sodipodi:docbase="/home/laurent/projets/jelix/site/design/2006/logos"
   sodipodi:docname="logo.svg"
   inkscape:output_extension="org.inkscape.output.svg.inkscape">
  <defs
     id="defs4" />
  <sodipodi:namedview
     id="base"
     pagecolor="#ffffff"
     bordercolor="#666666"
     borderopacity="1.0"
     inkscape:pageopacity="0.0"
     inkscape:pageshadow="2"
     inkscape:zoom="2"
     inkscape:cx="543.73612"
     inkscape:cy="743.58572"
     inkscape:document-units="px"
     inkscape:current-layer="layer1"
     showguides="false"
     inkscape:guide-bbox="true"
     inkscape:window-width="1084"
     inkscape:window-height="980"
     inkscape:window-x="56"
     inkscape:window-y="0">
    <sodipodi:guide
       orientation="vertical"
       position="572.5"
       id="guide2878" />
    <sodipodi:guide
       orientation="vertical"
       position="577.55472"
       id="guide2880" />
    <sodipodi:guide
       orientation="horizontal"
       position="700.28825"
       id="guide2882" />
    <sodipodi:guide
       orientation="horizontal"
       position="849.53829"
       id="guide2884" />
    <sodipodi:guide
       orientation="horizontal"
       position="774.82143"
       id="guide4273" />
    <sodipodi:guide
       orientation="vertical"
       position="500.53059"
       id="guide5246" />
    <sodipodi:guide
       orientation="vertical"
       position="649.78062"
       id="guide5248" />
    <sodipodi:guide
       orientation="vertical"
       position="561.96429"
       id="guide6249" />
    <sodipodi:guide
       orientation="horizontal"
       position="710.7307"
       id="guide12118" />
    <sodipodi:guide
       orientation="horizontal"
       position="852.06367"
       id="guide12120" />
    <sodipodi:guide
       orientation="vertical"
       position="503.10647"
       id="guide12122" />
    <sodipodi:guide
       orientation="horizontal"
       position="697.38406"
       id="guide12124" />
    <sodipodi:guide
       orientation="vertical"
       position="647.0027"
       id="guide12126" />
  </sodipodi:namedview>
  <metadata
     id="metadata7">
    <rdf:RDF>
      <cc:Work
         rdf:about="">
        <dc:format>image/svg+xml</dc:format>
        <dc:type
           rdf:resource="http://purl.org/dc/dcmitype/StillImage" />
      </cc:Work>
    </rdf:RDF>
  </metadata>
  <g
     inkscape:label="Calque 1"
     inkscape:groupmode="layer"
     id="layer1"
     style="display:inline">
    <path
       style="fill:#002830;fill-opacity:1;stroke:none;stroke-width:8;stroke-linejoin:round;stroke-miterlimit:4;stroke-dasharray:none;stroke-opacity:1"
       d="M 514.47014,189.82717 C 501.29594,189.82717 490.53233,200.59081 490.53233,213.76499 L 490.10555,336.73967 C 490.10555,349.91387 500.86916,360.67747 514.04336,360.67748 L 572.52831,360.75071 L 572.48412,350.14278 L 514.04336,350.20214 C 506.49131,350.20213 500.58089,344.29172 500.58089,336.73967 L 501.00767,213.76499 C 501.00767,206.21296 506.9181,200.30253 514.47014,200.30253 L 636.41813,200.40608 C 643.97016,200.40608 649.88059,206.31649 649.88059,213.86854 L 649.88059,336.69678 C 649.88059,344.24884 643.97017,350.15925 636.41813,350.15925 L 577.57244,350.15925 L 577.57244,360.72298 L 636.41813,360.63459 C 649.59232,360.63459 660.35595,349.87099 660.35595,336.69678 L 660.35595,213.86854 C 660.35595,200.69434 649.59231,189.93072 636.41813,189.93072 L 514.47014,189.82717 z M 577.57244,360.67879 L 569.12536,360.66232 C 569.12536,360.66232 577.57244,360.67879 577.57244,360.67879 z "
       id="rect2103"
       sodipodi:nodetypes="cccccccccccccccccccccccc" />
    <path
       style="fill:#3c90af;fill-opacity:1;fill-rule:evenodd;stroke:none;stroke-width:8;stroke-linecap:butt;stroke-linejoin:miter;stroke-miterlimit:4;stroke-dasharray:none;stroke-opacity:1"
       d="M 562.04246,203.29534 C 562.04246,203.29534 561.99849,239.66929 561.98366,254.79568 C 550.64427,248.23702 526.93512,234.34313 526.93512,234.34313 C 523.14783,232.16659 515.66011,231.79371 511.99928,238.08448 C 511.99928,238.08448 564.46074,268.36439 564.46074,268.36439 C 566.66482,269.6381 568.3824,269.4206 569.92316,268.53531 C 571.48721,267.63665 572.48489,266.35441 572.50313,263.7448 C 572.50313,263.7448 572.55852,213.46884 572.55852,213.46884 C 572.53849,209.13282 569.1911,203.32096 562.04246,203.29534 z "
       id="path2876"
       sodipodi:nodetypes="ccssssccs" />
    <path
       style="fill:#3c90af;fill-opacity:1;fill-rule:evenodd;stroke:none;stroke-width:8;stroke-linecap:butt;stroke-linejoin:miter;stroke-miterlimit:4;stroke-dasharray:none;stroke-opacity:1;display:inline"
       d="M 632.79057,229.09394 C 632.79057,229.09394 601.18184,247.42196 588.07458,254.97231 C 588.08486,241.87278 588.26274,214.39311 588.26274,214.39311 C 588.25404,210.02495 584.8331,203.35396 577.55472,203.32897 C 577.55472,203.32897 577.56228,263.90188 577.56228,263.90188 C 577.56125,266.44753 578.6084,267.82625 580.14547,268.71794 C 581.70575,269.62312 583.31505,269.84601 585.58415,268.557 C 585.58415,268.557 629.55059,243.16287 629.55059,243.16287 C 633.29567,240.97751 636.3427,235.29765 632.79057,229.09394 z "
       id="path10162"
       sodipodi:nodetypes="ccssssccs" />
    <path
       style="fill:#3c90af;fill-opacity:1;fill-rule:evenodd;stroke:none;stroke-width:8;stroke-linecap:butt;stroke-linejoin:miter;stroke-miterlimit:4;stroke-dasharray:none;stroke-opacity:1;display:inline"
       d="M 645.99837,303.33152 C 645.99837,303.33152 614.43361,285.22309 601.34118,277.64705 C 612.69085,271.10618 636.57788,257.52039 636.57788,257.52039 C 640.35647,255.32879 644.42324,249.03066 640.8057,242.71491 C 640.8057,242.71491 588.3518,273.00791 588.3518,273.00791 C 586.14668,274.27984 585.47626,275.87606 585.47256,277.65305 C 585.4688,279.45688 586.08042,280.96202 588.33128,282.28261 C 588.33128,282.28261 631.80483,307.22695 631.80483,307.22695 C 635.56994,309.3776 642.40186,309.50961 645.99837,303.33152 z "
       id="path11133"
       sodipodi:nodetypes="ccssssccs" />
    <path
       style="fill:#3c90af;fill-opacity:1;fill-rule:evenodd;stroke:none;stroke-width:8;stroke-linecap:butt;stroke-linejoin:miter;stroke-miterlimit:4;stroke-dasharray:none;stroke-opacity:1;display:inline"
       d="M 504.93894,252.23534 C 504.93894,252.23534 535.6912,269.96877 548.78362,277.54481 C 537.43396,284.08568 513.54692,297.67146 513.54692,297.67146 C 509.76834,299.86308 505.70155,306.1612 509.31911,312.47695 C 509.31911,312.47695 561.77301,282.18395 561.77301,282.18395 C 563.97811,280.91202 564.64854,279.3158 564.65224,277.53882 C 564.656,275.73498 564.04439,274.22984 561.79352,272.90924 C 561.79352,272.90924 519.00748,248.21492 519.00748,248.21492 C 515.24236,246.06426 508.53545,246.05725 504.93894,252.23534 z "
       id="path11135"
       sodipodi:nodetypes="ccssssccs" />
    <path
       style="fill:#002830;fill-opacity:1;fill-rule:evenodd;stroke:none;stroke-width:8;stroke-linecap:butt;stroke-linejoin:miter;stroke-miterlimit:4;stroke-dasharray:none;stroke-opacity:1;display:inline"
       d="M 517.0806,326.12851 C 517.0806,326.12851 548.87683,307.73798 561.98409,300.18762 C 561.97382,313.28716 561.79593,355.43929 561.79593,355.43929 C 561.79593,355.43929 572.50395,355.58748 572.50395,355.58748 C 572.50395,355.58748 572.49639,291.25806 572.49639,291.25806 C 572.49741,288.71241 571.45026,287.3337 569.9132,286.442 C 568.35291,285.53683 566.74362,285.31393 564.47453,286.60294 C 564.47453,286.60294 520.32058,312.12208 520.32058,312.12208 C 516.57549,314.30744 513.52847,319.92478 517.0806,326.12851 z "
       id="path11137"
       sodipodi:nodetypes="ccssssccs" />
    <path
       style="fill:#002830;fill-opacity:1;fill-rule:evenodd;stroke:none;stroke-width:8;stroke-linecap:butt;stroke-linejoin:miter;stroke-miterlimit:4;stroke-dasharray:none;stroke-opacity:1;display:inline"
       d="M 588.07789,355.37265 C 588.07789,355.37265 588.05937,315.42654 588.07419,300.30014 C 599.41358,306.85881 623.12273,320.7527 623.12273,320.7527 C 626.91002,322.92924 634.39773,323.30212 638.05857,317.01135 C 638.05857,317.01135 585.59711,286.73145 585.59711,286.73145 C 583.39303,285.45774 581.67545,285.67523 580.13469,286.56052 C 578.57064,287.45918 577.57296,288.74142 577.55472,291.35102 C 577.55472,291.35102 577.55804,355.31645 577.55804,355.31645 C 577.55804,355.31645 588.07789,355.37265 588.07789,355.37265 z "
       id="path11139"
       sodipodi:nodetypes="ccssssccs" />
    <path
       style="font-size:96.90646362px;font-style:normal;font-variant:normal;font-weight:normal;font-stretch:normal;text-align:start;line-height:125%;writing-mode:lr-tb;text-anchor:start;fill:#3c90af;fill-opacity:1;stroke:none;stroke-width:1px;stroke-linecap:butt;stroke-linejoin:miter;stroke-opacity:1;display:inline;font-family:Sans"
       d="M 500.53061,433.54855 L 500.53061,422.99673 C 500.53061,422.99674 500.78297,423.02828 501.28769,423.09136 C 501.82396,423.15446 502.28136,423.18601 502.6599,423.186 C 506.35067,423.18601 508.19605,421.27753 508.19606,417.46057 L 508.19606,365.12729 L 518.74789,365.12729 L 518.74789,415.42591 C 518.74787,427.50768 514.64701,433.54855 506.44531,433.54855 L 500.53061,433.54855"
       id="path14115" />
    <path
       style="font-size:96.90646362px;font-style:normal;font-variant:normal;font-weight:normal;font-stretch:normal;text-align:start;line-height:125%;writing-mode:lr-tb;text-anchor:start;fill:#002830;fill-opacity:1;stroke:none;stroke-width:1px;stroke-linecap:butt;stroke-linejoin:miter;stroke-opacity:1;display:inline;font-family:Sans"
       d="M 529.06313,433.54855 L 529.06313,365.12729 L 556.55466,365.12729 L 556.55466,375.01667 L 539.61495,375.01667 L 539.61495,392.95004 L 551.8229,392.95004 L 551.8229,402.83943 L 539.61495,402.83943 L 539.61495,423.28063 L 556.55466,423.28063 L 556.55466,433.54855 L 529.06313,433.54855"
       id="path14113" />
    <path
       style="font-size:96.90646362px;font-style:normal;font-variant:normal;font-weight:normal;font-stretch:normal;text-align:start;line-height:125%;writing-mode:lr-tb;text-anchor:start;fill:#002830;fill-opacity:1;stroke:none;stroke-width:1px;stroke-linecap:butt;stroke-linejoin:miter;stroke-opacity:1;display:inline;font-family:Sans"
       d="M 591.56969,433.54855 L 592.32677,423.32795 C 587.15335,423.35951 584.29852,423.40682 583.76228,423.4699 C 583.25754,423.533 582.81591,423.56455 582.43739,423.56454 C 578.7466,423.56455 576.90121,421.65607 576.90123,417.83911 L 576.90123,365.50583 L 566.3494,365.50583 L 566.3494,415.80445 C 566.3494,421.95575 567.35884,426.51401 569.37773,429.47924 C 571.49124,432.57066 574.58265,434.05327 578.65198,433.92709 L 591.56969,433.54855"
       id="path14111" />
    <path
       style="font-size:96.90646362px;font-style:normal;font-variant:normal;font-weight:normal;font-stretch:normal;text-align:start;line-height:125%;writing-mode:lr-tb;text-anchor:start;fill:#002830;fill-opacity:1;stroke:none;stroke-width:1px;stroke-linecap:butt;stroke-linejoin:miter;stroke-opacity:1;display:inline;font-family:Sans"
       d="M 597.57902,433.54855 L 597.57902,365.12729 L 608.32012,365.12729 L 608.32012,433.54855 L 597.57902,433.54855"
       id="path14109" />
    <path
       style="font-size:96.90646362px;font-style:normal;font-variant:normal;font-weight:normal;font-stretch:normal;text-align:start;line-height:125%;writing-mode:lr-tb;text-anchor:start;fill:#002830;fill-opacity:1;stroke:none;stroke-width:1px;stroke-linecap:butt;stroke-linejoin:miter;stroke-opacity:1;display:inline;font-family:Sans"
       d="M 613.33579,433.54855 L 625.82764,398.77011 L 613.52506,365.12729 L 624.45543,365.12729 L 630.89063,385.28459 L 631.3638,385.28459 L 638.13022,365.12729 L 648.91863,365.12729 L 636.9946,397.87108 L 649.95962,433.54855 L 638.93462,433.54855 L 632.02625,411.26196 L 631.64771,411.26196 L 624.17152,433.54855 L 613.33579,433.54855"
       id="text13133" />
    <path
       style="font-size:96.90646362px;font-style:normal;font-variant:normal;font-weight:normal;font-stretch:normal;text-align:start;line-height:125%;writing-mode:lr-tb;text-anchor:start;fill:#3c90af;fill-opacity:1;stroke:none;stroke-width:1px;stroke-linecap:butt;stroke-linejoin:miter;stroke-opacity:1;display:inline;font-family:Sans"
       d="M 613.25058,433.54156 L 625.74243,398.76312 L 613.43985,365.1203 L 624.49522,365.08905 C 624.49522,365.08905 636.90566,397.82281 636.90566,397.82281 L 624.21131,433.54156 L 613.25058,433.54156"
       id="path15086"
       sodipodi:nodetypes="ccccccc" />
  </g>
  <g
     inkscape:groupmode="layer"
     id="layer2"
     inkscape:label="marques"
     style="display:none"
     sodipodi:insensitive="true">
    <path
       sodipodi:type="arc"
       style="opacity:1;fill:none;fill-opacity:1;stroke:#ff0000;stroke-width:0.2;stroke-linecap:butt;stroke-linejoin:round;stroke-miterlimit:0;stroke-dasharray:none;stroke-opacity:1;display:inline"
       id="path3301"
       sodipodi:cx="477.85715"
       sodipodi:cy="327.36218"
       sodipodi:rx="74.521278"
       sodipodi:ry="74.521278"
       d="M 552.37843 327.36218 A 74.521278 74.521278 0 1 1  403.33587,327.36218 A 74.521278 74.521278 0 1 1  552.37843 327.36218 z"
       transform="translate(97.294721,-49.909528)" />
    <path
       sodipodi:type="arc"
       style="opacity:1;fill:none;fill-opacity:1;stroke:#ff0000;stroke-width:0.2;stroke-linecap:butt;stroke-linejoin:round;stroke-miterlimit:0;stroke-dasharray:none;stroke-opacity:1"
       id="path4275"
       sodipodi:cx="581.84784"
       sodipodi:cy="205.22301"
       sodipodi:rx="0"
       sodipodi:ry="0.63134533"
       d="M 581.84784,205.22301 A 0,0.63134533 0 0 1 581.84784,205.22991 L 581.84784,205.22301 z"
       sodipodi:start="0"
       sodipodi:end="0.010928527" />
    <g
       style="display:inline"
       id="g6241"
       transform="matrix(0.5,0.8660254,-0.8660254,0.5,527.5819,-359.11287)">
      <path
         id="path6243"
         d="M 572.60395,202.72389 L 572.60395,351.97393"
         style="fill:none;fill-opacity:0.75;fill-rule:evenodd;stroke:#ff0000;stroke-width:0.2;stroke-linecap:butt;stroke-linejoin:miter;stroke-miterlimit:4;stroke-dasharray:none;stroke-opacity:1" />
      <path
         id="path6245"
         d="M 577.65472,202.72389 L 577.65472,351.97393"
         style="fill:none;fill-opacity:0.75;fill-rule:evenodd;stroke:#ff0000;stroke-width:0.2;stroke-linecap:butt;stroke-linejoin:miter;stroke-miterlimit:4;stroke-dasharray:none;stroke-opacity:1;display:inline" />
      <path
         id="path6247"
         d="M 575.09248,202.72389 L 575.09248,351.97393"
         style="fill:none;fill-opacity:0.75;fill-rule:evenodd;stroke:#ff0000;stroke-width:0.2;stroke-linecap:butt;stroke-linejoin:miter;stroke-miterlimit:4;stroke-dasharray:none;stroke-opacity:1;display:inline" />
    </g>
    <g
       id="g6253">
      <g
         id="g6236">
        <path
           style="fill:none;fill-opacity:0.75;fill-rule:evenodd;stroke:#ff0000;stroke-width:0.2;stroke-linecap:butt;stroke-linejoin:miter;stroke-miterlimit:4;stroke-dasharray:none;stroke-opacity:1"
           d="M 572.60395,202.72389 L 572.60395,351.97393"
           id="path5250" />
        <path
           style="fill:none;fill-opacity:0.75;fill-rule:evenodd;stroke:#ff0000;stroke-width:0.2;stroke-linecap:butt;stroke-linejoin:miter;stroke-miterlimit:4;stroke-dasharray:none;stroke-opacity:1;display:inline"
           d="M 577.65472,202.72389 L 577.65472,351.97393"
           id="path6221" />
        <path
           style="fill:none;fill-opacity:0.75;fill-rule:evenodd;stroke:#ff0000;stroke-width:0.2;stroke-linecap:butt;stroke-linejoin:miter;stroke-miterlimit:4;stroke-dasharray:none;stroke-opacity:1;display:inline"
           d="M 575.09248,202.72389 L 575.09248,351.97393"
           id="path6223" />
      </g>
      <path
         style="fill:none;fill-opacity:0.75;fill-rule:evenodd;stroke:#ff0000;stroke-width:0.2;stroke-linecap:butt;stroke-linejoin:miter;stroke-miterlimit:4;stroke-dasharray:none;stroke-opacity:1;display:inline"
         d="M 561.86429,202.92389 L 561.86429,352.17393"
         id="path6251" />
    </g>
    <g
       style="display:inline"
       id="g6260"
       transform="matrix(-0.5,0.8660254,0.8660254,0.5,622.18861,-359.36628)">
      <g
         id="g6262">
        <path
           style="fill:none;fill-opacity:0.75;fill-rule:evenodd;stroke:#ff0000;stroke-width:0.2;stroke-linecap:butt;stroke-linejoin:miter;stroke-miterlimit:4;stroke-dasharray:none;stroke-opacity:1"
           d="M 572.60395,202.72389 L 572.60395,351.97393"
           id="path6264" />
        <path
           style="fill:none;fill-opacity:0.75;fill-rule:evenodd;stroke:#ff0000;stroke-width:0.2;stroke-linecap:butt;stroke-linejoin:miter;stroke-miterlimit:4;stroke-dasharray:none;stroke-opacity:1;display:inline"
           d="M 577.65472,202.72389 L 577.65472,351.97393"
           id="path6266" />
        <path
           style="fill:none;fill-opacity:0.75;fill-rule:evenodd;stroke:#ff0000;stroke-width:0.2;stroke-linecap:butt;stroke-linejoin:miter;stroke-miterlimit:4;stroke-dasharray:none;stroke-opacity:1;display:inline"
           d="M 575.09248,202.72389 L 575.09248,351.97393"
           id="path6268" />
      </g>
      <path
         style="fill:none;fill-opacity:0.75;fill-rule:evenodd;stroke:#ff0000;stroke-width:0.2;stroke-linecap:butt;stroke-linejoin:miter;stroke-miterlimit:4;stroke-dasharray:none;stroke-opacity:1;display:inline"
         d="M 561.86429,202.92389 L 561.86429,352.17393"
         id="path6270" />
    </g>
    <path
       style="fill:none;fill-opacity:0.75;fill-rule:evenodd;stroke:#ff0000;stroke-width:0.2;stroke-linecap:butt;stroke-linejoin:miter;stroke-miterlimit:4;stroke-dasharray:none;stroke-opacity:1"
       d="M 562.9241,269.14789 L 573.87841,262.82341"
       id="path6276" />
    <path
       style="fill:none;fill-opacity:0.75;fill-rule:evenodd;stroke:#ff0000;stroke-width:0.2;stroke-linecap:butt;stroke-linejoin:miter;stroke-miterlimit:4;stroke-dasharray:none;stroke-opacity:1;display:inline"
       d="M 562.05158,254.8505 L 572.40395,272.78136"
       id="path7247" />
    <path
       style="fill:none;fill-opacity:0.75;fill-rule:evenodd;stroke:#fe0000;stroke-width:0.22089252;stroke-linecap:butt;stroke-linejoin:miter;stroke-miterlimit:4;stroke-dasharray:none;stroke-opacity:1"
       d="M 573.18016,202.93684 L 573.18016,214.25788"
       id="path8218" />
    <path
       style="fill:none;fill-opacity:0.75;fill-rule:evenodd;stroke:#fe0000;stroke-width:0.22089252;stroke-linecap:butt;stroke-linejoin:miter;stroke-miterlimit:4;stroke-dasharray:none;stroke-opacity:1;display:inline"
       d="M 518.54627,229.09865 L 528.35057,234.75917"
       id="path9189" />
  </g>
</svg>
